<svg width="92" height="92" viewBox="0 0 92 92" fill="none" xmlns="http://www.w3.org/2000/svg">
<path d="M40.0866 26.4928L46.8495 25H49.4507L56.7339 28.4833L60.3755 35.9474V41.4211L65.0575 40.9235V42.4163V44.9043L61.9361 45.8996L60.8957 47.3924L63.4968 52.3685L70.2598 55.8517L68.6991 57.8422L64.017 59.335L62.9766 61.3254L61.9361 62.8183H56.2136L53.6125 63.8135L47.89 66.7991L44.2484 65.8039L40.0866 63.8135L36.9652 62.8183H32.8034L31.2427 61.823L29.682 59.335L27.0809 58.8374L25 57.3446V55.8517L27.6011 54.3589L32.2832 50.8757L33.3236 47.3924L29.1618 44.9043L29.682 42.4163L31.2427 40.9235L34.3641 41.4211L35.9248 32.4641L40.0866 26.4928Z" fill="white"/>
<path d="M47.8096 26.4336C54.2064 26.4356 59.5349 31.5295 59.5426 37.663C59.5444 39.0996 59.5907 40.4225 59.6755 41.6411C59.7278 42.393 60.3816 42.9502 61.1313 42.9502C61.2417 42.9502 61.3541 42.9381 61.4671 42.9128L63.471 42.4634C63.5563 42.4443 63.6419 42.4351 63.7264 42.4351C64.2354 42.4351 64.704 42.7677 64.8183 43.2604C64.9798 43.9566 64.572 44.66 63.8668 44.8965L60.825 46.071C60.057 46.3676 59.6446 47.167 59.8608 47.9317C62.3012 56.5616 69.1174 55.6641 69.1174 56.7884C69.1174 58.2002 63.9797 58.3996 63.5156 58.8436C63.0514 59.2877 63.4954 61.4428 62.4583 61.86C62.2628 61.9387 61.9851 61.966 61.6463 61.966C60.8652 61.966 59.7604 61.8202 58.5959 61.8202C57.5859 61.8202 56.531 61.9299 55.6036 62.3397C53.1433 63.4268 50.7713 65.4574 47.8308 65.4574C44.8904 65.4574 42.5184 63.4268 40.058 62.3397C39.1304 61.9298 38.0758 61.8202 37.0657 61.8202C35.9014 61.8202 34.7964 61.966 34.0153 61.966C33.6767 61.966 33.3987 61.9386 33.2033 61.86C32.1662 61.4428 32.6102 59.2877 32.1461 58.8436C31.6819 58.3996 26.5442 58.2001 26.5442 56.7883C26.5442 55.6639 33.3604 56.5614 35.8008 47.9317C36.0171 47.167 35.6046 46.3676 34.8366 46.071L31.7948 44.8964C31.0894 44.6599 30.6816 43.9565 30.8432 43.2603C30.9575 42.7675 31.4262 42.4349 31.9351 42.435C32.0196 42.435 32.1052 42.4442 32.1905 42.4633L34.1944 42.9127C34.3074 42.938 34.4198 42.9501 34.5303 42.9501C35.2799 42.9501 35.9337 42.3928 35.986 41.641C36.0708 40.4224 36.1172 39.0995 36.119 37.6629C36.1268 31.5295 41.4128 26.4357 47.8096 26.4336ZM47.8105 24H47.8086C45.8993 24.0006 44.0393 24.3676 42.2805 25.0908C40.5923 25.785 39.0729 26.7747 37.7646 28.0327C36.458 29.289 35.4298 30.7475 34.7084 32.3677C33.9584 34.0524 33.577 35.833 33.5747 37.66C33.5735 38.557 33.5541 39.4275 33.5167 40.2612L32.7711 40.0939C32.4976 40.0326 32.2163 40.0015 31.9353 40.0014C31.1239 40.0013 30.3235 40.2636 29.6816 40.74C29.0118 41.237 28.5422 41.9448 28.3593 42.733C27.924 44.6091 29.007 46.5031 30.8838 47.1691L33.1163 48.031C31.638 52.3712 28.9122 53.2028 27.0766 53.7631C26.5896 53.9117 26.1689 54.0401 25.7683 54.2302C24.1723 54.9879 24 56.2716 24 56.7883C24 57.7779 24.4897 58.6811 25.379 59.3312C25.8218 59.655 26.3704 59.9221 27.0559 60.1478C27.9902 60.4555 29.0733 60.6508 29.9536 60.8073C29.9961 61.1193 30.0585 61.4545 30.1636 61.7922C30.6001 63.195 31.5212 63.8232 32.2171 64.1031C32.8774 64.3687 33.5596 64.3994 34.0153 64.3994C34.4611 64.3994 34.9322 64.366 35.4311 64.3307C35.9663 64.2927 36.5197 64.2536 37.0657 64.2536C37.9118 64.2536 38.5416 64.3501 38.9911 64.5487C39.6083 64.8214 40.2629 65.1892 40.9559 65.5785C42.8852 66.6623 45.0719 67.8908 47.8308 67.8908C50.5897 67.8908 52.7763 66.6623 54.7056 65.5785C55.3986 65.1891 56.0532 64.8214 56.6705 64.5487C57.12 64.35 57.7499 64.2536 58.5959 64.2536C59.1419 64.2536 59.6953 64.2928 60.2304 64.3307C60.7293 64.366 61.2005 64.3994 61.6462 64.3994C62.1019 64.3994 62.7841 64.3687 63.4444 64.1031C64.1403 63.8232 65.0614 63.195 65.4979 61.7922C65.603 61.4545 65.6655 61.1193 65.7079 60.8073C66.5882 60.6507 67.6714 60.4555 68.6057 60.1478C69.2913 59.9221 69.8397 59.655 70.2825 59.3312C71.1717 58.6811 71.6615 57.7779 71.6615 56.7883C71.6615 56.2716 71.4892 54.9879 69.893 54.2303C69.4925 54.0402 69.0718 53.9118 68.5847 53.7631C66.7491 53.203 64.0233 52.3712 62.545 48.0311L64.7774 47.1692C66.6542 46.5032 67.7373 44.6091 67.302 42.733C67.1191 41.9448 66.6495 41.237 65.9798 40.74C65.3378 40.2637 64.5376 40.0014 63.7264 40.0014C63.4455 40.0014 63.1642 40.0325 62.8904 40.0938L62.1448 40.2611C62.1073 39.4275 62.0879 38.557 62.0868 37.6599C62.0844 35.8314 61.6999 34.0491 60.9439 32.3621C60.2182 30.7427 59.1844 29.2846 57.8712 28.0282C56.5581 26.7719 55.0344 25.7832 53.3427 25.0897C51.5806 24.3673 49.7193 24.0007 47.8105 24Z" fill="#050505"/>
</svg>
